<svg width="15" height="15" viewBox="0 0 15 15" fill="none" xmlns="http://www.w3.org/2000/svg"><path aria-hidden="true" d="M11.1466 10.1043C11.1466 11.5711 10.675 12.663 9.96433 13.386C9.25193 14.1107 8.26332 14.5019 7.15971 14.5019C6.0561 14.5019 5.06749 14.1107 4.35509 13.386C3.64442 12.663 3.17285 11.5711 3.17285 10.1043C3.17285 8.64632 3.7424 7.11199 4.56107 5.94265C4.9688 5.36028 5.42719 4.88465 5.88724 4.5588C6.3505 4.23066 6.78625 4.07422 7.15971 4.07422C7.53318 4.07422 7.96892 4.23066 8.43219 4.5588C8.89223 4.88465 9.35063 5.36028 9.75835 5.94265C10.577 7.11199 11.1466 8.64632 11.1466 10.1043Z" fill="#FFBA08" stroke="#614845"></path><path aria-hidden="true" d="M5.83005 6.62501C5.2332 7.23985 4.88941 8.00215 4.67578 8.98981" stroke="white" stroke-linecap="round"></path><path aria-hidden="true" d="M3.63277 2.93077C3.61513 2.81723 3.85355 2.74246 3.91187 2.84102C4.28535 3.47222 4.87569 4.13594 5.59301 3.78483C6.47779 3.35175 6.91125 1.89752 7.08948 1.08118C7.11231 0.976592 7.29891 0.97153 7.32653 1.07492C7.5391 1.87055 8.01276 3.28434 8.79249 3.78483C9.47511 4.22298 10.077 3.41454 10.439 2.72796C10.4917 2.62801 10.7008 2.68728 10.6867 2.79971L10.3148 5.75443C10.3124 5.77297 10.3046 5.79023 10.2901 5.80166C10.1806 5.88734 9.58724 6.23703 7.19352 6.23703C4.7901 6.23703 4.20167 5.88451 4.09567 5.80063C4.08187 5.78971 4.0744 5.77357 4.07168 5.75604L3.63277 2.93077Z" fill="#F86110" stroke="#614845"></path></svg>