<svg width="15" height="15" viewBox="0 0 15 15" fill="none" xmlns="http://www.w3.org/2000/svg"><path aria-hidden="true" fill-rule="evenodd" clip-rule="evenodd" d="M14.2286 4.84539C13.2474 2.67423 11.5098 1.52679 9.18155 1.52679C8.75104 1.53974 8.43739 1.58109 8.18404 1.61453C7.94511 1.64653 7.75944 1.66954 7.54937 1.67026C7.11145 1.67026 6.58219 1.56743 5.72338 1.31464C5.36276 1.11112 4.87602 1 4.34676 1C2.85919 1 0.967731 1.87235 0.11928 4.32148L0.0926493 4.42037C0.0171982 4.80584 -0.293854 6.76594 0.898938 7.75768C0.988812 7.87454 1.41341 8.46317 1.36311 9.10684C1.32354 9.32762 1.04688 11.1144 2.09284 12.6682C2.82184 13.7505 4.00796 14.4542 5.62943 14.762L5.66124 14.77C5.78551 14.8002 6.10617 14.8642 6.53411 14.8642C7.42842 14.8642 8.70517 14.593 9.70929 13.3032L9.73672 13.2679C9.79695 13.1913 10.4239 12.4567 12.1286 12.0878C13.2766 11.8177 15.0109 11.4106 15.0098 8.11654C15.0039 7.94537 14.9288 6.39377 14.2286 4.84539Z" fill="#614845"></path><path aria-hidden="true" fill-rule="evenodd" clip-rule="evenodd" d="M1.08475 4.74263C1.04794 4.93401 0.757016 6.59431 1.6411 7.31157C1.65915 7.32582 1.67543 7.3418 1.68994 7.35985C1.71896 7.39424 2.39778 8.22092 2.30929 9.21328C2.30823 9.22509 2.30646 9.23794 2.30398 9.25079C2.30115 9.26573 2.01024 10.8576 2.89361 12.1838C3.4889 13.0761 4.4841 13.6589 5.85163 13.9167C5.86155 13.9188 5.87146 13.9201 5.88136 13.9236C5.88136 13.9236 6.16555 14 6.57999 14C7.28535 14 8.29188 13.7846 9.08395 12.7582C9.09704 12.7364 9.75853 11.7787 11.7794 11.3373C12.8217 11.0896 14.0098 10.8076 14.0098 8.20563C14.0094 8.20043 13.9633 6.73846 13.3228 5.3081C12.4918 3.45086 11.0818 2.5092 9.13278 2.5092C8.76118 2.51998 8.48901 2.55575 8.24835 2.58805C8.02114 2.61897 7.8056 2.6471 7.55149 2.6478C7.05459 2.6478 6.48125 2.5363 5.57452 2.26433C5.54621 2.25599 5.52001 2.24453 5.49524 2.2289C5.25351 2.08406 4.88615 2 4.48694 2C3.296 2 1.77842 2.72143 1.08475 4.74263Z" fill="white"></path><path aria-hidden="true" fill-rule="evenodd" clip-rule="evenodd" d="M7.00938 4C5.35307 4 4.00977 5.34367 4.00977 7.00057C4.00977 8.65709 5.35307 10 7.00938 10C8.66645 10 10.0098 8.65709 10.0098 7.00057C10.0098 5.34367 8.66645 4 7.00938 4Z" fill="#FFBA08"></path><path aria-hidden="true" fill-rule="evenodd" clip-rule="evenodd" d="M9.09938 5C9.47309 5.48973 9.69724 6.10517 9.69724 6.77562C9.69724 8.36504 8.44424 9.65494 6.89777 9.65494C6.16909 9.65494 5.50757 9.36598 5.00977 8.89703C5.52242 9.56712 6.31581 10 7.20996 10C8.75607 10 10.0098 8.7112 10.0098 7.12142C10.0098 6.28079 9.65694 5.52689 9.09938 5Z" fill="#F68C1E"></path><path aria-hidden="true" fill-rule="evenodd" clip-rule="evenodd" d="M5.33038 7C5.3099 7 5.28941 6.99858 5.26853 6.99469C5.09441 6.96389 4.98135 6.81273 5.01601 6.65732C5.30084 5.35599 6.54925 5.02464 6.60163 5.01119C6.77262 4.96729 6.9491 5.0565 6.99756 5.20908C7.04562 5.3613 6.94752 5.51954 6.77813 5.56344C6.73519 5.57477 5.85157 5.82363 5.64435 6.76813C5.61402 6.90512 5.48047 7 5.33038 7Z" fill="white"></path><path aria-hidden="true" fill-rule="evenodd" clip-rule="evenodd" d="M14.0098 7.91697C14.0095 7.91151 13.9639 6.46068 13.3648 5C13.4798 5.31977 13.741 6.30425 13.607 8.41104C13.4197 11.3514 11.0827 10.3121 9.67449 11.0881C8.26665 11.8629 7.92697 13.1905 6.4722 13.3444C5.02172 13.4986 3.02123 12.4452 3.00977 12.439C3.625 13.1814 4.54444 13.677 5.75018 13.9121C5.76021 13.9143 5.77025 13.9157 5.78028 13.9194C5.78028 13.9194 6.06801 14 6.4876 14C7.20173 14 8.22079 13.7735 9.0227 12.696C9.03596 12.6731 9.70564 11.6678 11.7516 11.2048C12.8069 10.9448 14.0098 10.6484 14.0098 7.91697Z" fill="#D0D2D3"></path></svg>