<svg width="15" height="15" viewBox="0 0 15 15" fill="none" xmlns="http://www.w3.org/2000/svg"><path aria-hidden="true" d="M12.5 9C12.5 10.8219 11.9134 12.1893 11.0185 13.0991C10.1219 14.0107 8.88001 14.5 7.5 14.5C6.11999 14.5 4.87806 14.0107 3.98148 13.0991C3.08664 12.1893 2.5 10.8219 2.5 9C2.5 7.18692 3.20766 5.28515 4.22202 3.83712C4.72759 3.11541 5.29822 2.52262 5.87483 2.11444C6.45466 1.70398 7.01133 1.5 7.5 1.5C7.98867 1.5 8.54534 1.70398 9.12517 2.11444C9.70178 2.52262 10.2724 3.11541 10.778 3.83712C11.7923 5.28515 12.5 7.18692 12.5 9Z" fill="#DFDFDF" stroke="#614845"></path><path aria-hidden="true" d="M5.77512 4.73438C5.04357 5.48775 4.6222 6.4218 4.36035 7.63198" stroke="white" stroke-linecap="round"></path></svg>